<svg width="100" height="100" viewBox="0 0 100 100" fill="none" xmlns="http://www.w3.org/2000/svg">
<rect width="100" height="100" fill="#F5F5F5"/>
<g id="Adaptive Main page 1920 / 320">
<path d="M-1516 -637C-1516 -747.457 -1426.46 -837 -1316 -837H1979C2089.46 -837 2179 -747.457 2179 -637V6980C2179 7090.46 2089.46 7180 1979 7180H-1316C-1426.46 7180 -1516 7090.46 -1516 6980V-637Z" fill="#478BF9" fill-opacity="0.01"/>
<g id="1920 - Main_Page" clip-path="url(#clip0_0_1)">
<rect width="1920" height="1265" transform="translate(-1084 -442)" fill="#110A1D"/>
<g id="Banner Area">
<g id="Dot Light" opacity="0.7" filter="url(#filter0_f_0_1)">
<circle cx="708" cy="535" r="287" fill="url(#paint0_linear_0_1)"/>
</g>
<g id="Dot Light_2" opacity="0.55" filter="url(#filter1_f_0_1)">
<path d="M-663.457 105.728C-374.62 313.191 -231.985 481.806 -262.552 524.362C-293.119 566.918 -578.789 445.363 -867.626 237.9C-1156.46 30.4374 -1351.31 -192.463 -1335.27 -214.799C-1319.22 -237.135 -952.294 -101.734 -663.457 105.728Z" fill="url(#paint1_linear_0_1)"/>
</g>
<mask id="mask0_0_1" style="mask-type:alpha" maskUnits="userSpaceOnUse" x="-1084" y="-322" width="1920" height="1048">
<rect id="Mask Area" x="-1084" y="-322" width="1920" height="1048" fill="url(#paint2_linear_0_1)"/>
</mask>
<g mask="url(#mask0_0_1)">
<g id="Banner BG">
<g id="Line_Vertical_3" opacity="0.4">
<g id="Shield">
<path id="Vector" d="M49.9826 99.9325C37.2841 99.9325 24.5959 95.1029 14.9263 85.4332C-4.40252 66.1044 -4.40252 34.6599 14.9263 15.3311C24.2941 5.96332 36.7428 0.811035 49.9826 0.811035C63.2224 0.811035 75.6711 5.96332 85.0389 15.3311C104.368 34.6599 104.368 66.1044 85.0389 85.4332C75.3797 95.0925 62.6811 99.9325 49.9826 99.9325ZM17.5285 82.8311C35.4209 100.724 64.5339 100.724 82.4263 82.8311C100.319 64.9386 100.319 35.8257 82.4263 17.9333C73.7559 9.26286 62.2335 4.49573 49.9722 4.49573C37.7108 4.49573 26.1884 9.27327 17.5181 17.9333C-0.374391 35.8257 -0.374391 64.9386 17.5181 82.8311H17.5285Z" fill="#9DADF2"/>
<g id="Group">
<path id="Vector_2" d="M49.3269 68.9355C49.5039 69.3622 49.9202 69.6121 50.3574 69.6121C50.5031 69.6121 50.6489 69.5808 50.7946 69.5288C54.2919 68.0612 57.4769 65.7921 59.9958 62.9609C60.4017 62.5029 60.3601 61.7951 59.9021 61.3892C59.4441 60.9833 58.7364 61.0249 58.3304 61.4829C56.0301 64.0747 53.1261 66.1459 49.9306 67.4782C49.3686 67.7176 49.0979 68.3734 49.3373 68.9355H49.3269Z" fill="#9DADF2"/>
<path id="Vector_3" d="M68.8729 33.2441L50.3872 25.8539C50.1166 25.7499 49.8251 25.7499 49.5545 25.8539L31.0688 33.2441C30.642 33.4107 30.3713 33.8166 30.3713 34.2746V47.5143C30.3922 59.7341 38.1154 70.7776 49.5857 74.9827C49.7106 75.0243 49.8355 75.0452 49.9708 75.0452C50.1061 75.0452 50.231 75.0243 50.3559 74.9827C61.8263 70.7672 69.5495 59.7341 69.5703 47.5143V34.2746C69.5703 33.8166 69.2997 33.4107 68.8729 33.2441ZM67.3428 47.5143C67.322 58.6307 60.3482 68.7583 49.9812 72.7448C39.6142 68.7583 32.63 58.6307 32.6092 47.5143V35.0344L49.9812 28.0918L67.3428 35.0344V47.5143Z" fill="#9DADF2"/>
<path id="Vector_4" d="M42.2585 34.9824C41.9878 34.8679 41.686 34.8679 41.4049 34.9824L37.0021 36.7414C36.5754 36.908 36.3047 37.3139 36.3047 37.7719V42.4662C36.3047 43.0803 36.8043 43.5799 37.4184 43.5799C38.0325 43.5799 38.5322 43.0803 38.5322 42.4662V38.5317L42.2272 37.0537C42.5082 36.9392 42.7164 36.731 42.8413 36.4499C42.9558 36.1793 42.9558 35.8775 42.8413 35.5964C42.7268 35.3154 42.5187 35.1073 42.248 34.9824H42.2585Z" fill="#9DADF2"/>
<path id="Vector_5" d="M78.1259 22.2319C70.6109 14.7065 60.6082 10.5742 49.9706 10.5742C39.333 10.5742 29.3407 14.7169 21.8152 22.2319C6.29596 37.7512 6.29596 63.0129 21.8152 78.5426C29.5801 86.3074 39.7701 90.1794 49.9706 90.1794C60.171 90.1794 70.3611 86.297 78.1259 78.5426C93.6452 63.0233 93.6452 37.7616 78.1259 22.2319ZM72.6198 47.5145C72.651 61.639 63.6267 73.994 50.1684 78.272C50.0434 78.3136 49.9081 78.3136 49.7728 78.272C36.3144 73.994 27.2902 61.639 27.3214 47.5145V31.8911C27.3214 31.6309 27.4775 31.3915 27.7273 31.2874L49.7312 22.4921C49.8041 22.4609 49.8873 22.4505 49.9706 22.4505C50.0539 22.4505 50.1371 22.4609 50.21 22.4921L72.2138 31.2978C72.4636 31.3915 72.6198 31.6309 72.6198 31.9015V47.5249V47.5145Z" fill="#9DADF2"/>
</g>
</g>
</g>
</g>
</g>
</g>
</g>
<path d="M-1316 -817H1979V-857H-1316V-817ZM2159 -637V6980H2199V-637H2159ZM1979 7160H-1316V7200H1979V7160ZM-1496 6980V-637H-1536V6980H-1496ZM-1316 7160C-1415.41 7160 -1496 7079.41 -1496 6980H-1536C-1536 7101.5 -1437.5 7200 -1316 7200V7160ZM2159 6980C2159 7079.41 2078.41 7160 1979 7160V7200C2100.5 7200 2199 7101.5 2199 6980H2159ZM1979 -817C2078.41 -817 2159 -736.411 2159 -637H2199C2199 -758.503 2100.5 -857 1979 -857V-817ZM-1316 -857C-1437.5 -857 -1536 -758.503 -1536 -637H-1496C-1496 -736.411 -1415.41 -817 -1316 -817V-857Z" fill="#478BF9"/>
</g>
<defs>
<filter id="filter0_f_0_1" x="-229" y="-402" width="1874" height="1874" filterUnits="userSpaceOnUse" color-interpolation-filters="sRGB">
<feFlood flood-opacity="0" result="BackgroundImageFix"/>
<feBlend mode="normal" in="SourceGraphic" in2="BackgroundImageFix" result="shape"/>
<feGaussianBlur stdDeviation="325" result="effect1_foregroundBlur_0_1"/>
</filter>
<filter id="filter1_f_0_1" x="-1636.19" y="-517.202" width="1677.7" height="1350.02" filterUnits="userSpaceOnUse" color-interpolation-filters="sRGB">
<feFlood flood-opacity="0" result="BackgroundImageFix"/>
<feBlend mode="normal" in="SourceGraphic" in2="BackgroundImageFix" result="shape"/>
<feGaussianBlur stdDeviation="150" result="effect1_foregroundBlur_0_1"/>
</filter>
<linearGradient id="paint0_linear_0_1" x1="995" y1="248" x2="319.706" y2="416.823" gradientUnits="userSpaceOnUse">
<stop stop-color="#478BF9"/>
<stop offset="1" stop-color="#9DADF2"/>
</linearGradient>
<linearGradient id="paint1_linear_0_1" x1="-1324.56" y1="-229.709" x2="-266.691" y2="530.124" gradientUnits="userSpaceOnUse">
<stop stop-color="#478BF9"/>
<stop offset="1" stop-color="#478BF9" stop-opacity="0.4"/>
</linearGradient>
<linearGradient id="paint2_linear_0_1" x1="-124" y1="-322" x2="-124" y2="726" gradientUnits="userSpaceOnUse">
<stop offset="0.636378" stop-color="white"/>
<stop offset="0.95445" stop-color="white" stop-opacity="0"/>
</linearGradient>
<clipPath id="clip0_0_1">
<rect width="1920" height="1265" fill="white" transform="translate(-1084 -442)"/>
</clipPath>
</defs>
</svg>
